<svg width="32" height="32" viewBox="0 0 32 32" fill="none" xmlns="http://www.w3.org/2000/svg">
<rect width="32" height="32" rx="16" fill="black"/>
<path d="M21.2715 6.5C21.9955 6.5 22.7593 6.74132 23.29 7.27539C23.4876 7.47417 23.5121 7.72768 23.4961 7.90527C23.4799 8.08335 23.4187 8.26399 23.3467 8.42871C23.2007 8.76259 22.9524 9.15917 22.6543 9.5791C22.053 10.4262 21.1797 11.4627 20.293 12.46C19.4035 13.4603 18.4892 14.4333 17.7979 15.1553C17.465 15.5029 17.1831 15.7926 16.9805 16C17.1831 16.2074 17.465 16.4971 17.7979 16.8447C18.4892 17.5667 19.4035 18.5397 20.293 19.54C21.1797 20.5373 22.053 21.5738 22.6543 22.4209C22.9524 22.8408 23.2007 23.2374 23.3467 23.5713C23.4187 23.736 23.4799 23.9167 23.4961 24.0947C23.5121 24.2723 23.4876 24.5258 23.29 24.7246C22.7592 25.2587 21.9956 25.5 21.2715 25.5C20.5474 25.5 19.7837 25.2587 19.2529 24.7246C18.6457 24.1135 15.6445 20.9339 14.0361 19.2285V19.2305L14.0273 19.2217C13.9918 20.3751 13.9376 21.4384 13.8613 22.3047C13.8102 22.8853 13.7487 23.3884 13.6758 23.7744C13.6395 23.9667 13.5975 24.1419 13.5488 24.2881C13.5068 24.4142 13.4372 24.5932 13.3066 24.7246C12.7759 25.2587 12.0121 25.5 11.2881 25.5C10.564 25.5 9.80037 25.2587 9.26953 24.7246C9.18419 24.6387 9.12918 24.5381 9.09375 24.4609C9.05584 24.3783 9.02492 24.2868 8.99805 24.1943C8.94425 24.0091 8.89793 23.7809 8.85742 23.5244C8.77604 23.0091 8.70963 22.3314 8.65723 21.5537C8.55224 19.9953 8.49999 17.9952 8.5 16C8.50001 14.0048 8.55224 12.0046 8.65723 10.4463C8.70963 9.66856 8.77604 8.99086 8.85742 8.47559C8.89793 8.21911 8.94425 7.99086 8.99805 7.80566C9.02492 7.71319 9.05584 7.62172 9.09375 7.53906C9.12918 7.4619 9.18419 7.36127 9.26953 7.27539L9.37109 7.17871C9.89502 6.71195 10.6091 6.50001 11.2881 6.5C12.0121 6.50003 12.7758 6.74125 13.3066 7.27539C13.4372 7.40677 13.5068 7.58578 13.5488 7.71191C13.5975 7.85808 13.6394 8.03332 13.6758 8.22559C13.7487 8.61164 13.8102 9.11469 13.8613 9.69531C13.9375 10.5613 13.9918 11.6243 14.0273 12.7773L14.0361 12.7695V12.7705C15.6447 11.065 18.6457 7.88641 19.2529 7.27539C19.7837 6.74131 20.5474 6.50002 21.2715 6.5Z" fill="white" stroke="black" stroke-linecap="round"/>
</svg>
