<svg width="24" height="24" viewBox="0 0 24 24" fill="none" xmlns="http://www.w3.org/2000/svg">
<path d="M18.375 0H5.625C2.5184 0 0 2.5184 0 5.625V18.375C0 21.4816 2.5184 24 5.625 24H18.375C21.4816 24 24 21.4816 24 18.375V5.625C24 2.5184 21.4816 0 18.375 0Z" fill="#F0DB4F"/>
<path d="M6.3104 20.0562L8.14696 18.9447C8.50133 19.5729 8.82365 20.1045 9.5968 20.1045C10.3379 20.1045 10.8051 19.8146 10.8051 18.687V11.0184H13.0606V18.7188C13.0606 21.0548 11.6913 22.1181 9.69346 22.1181C7.88924 22.1181 6.84196 21.1837 6.3103 20.056M14.2856 19.8145L16.122 18.7513C16.6055 19.5407 17.2338 20.1207 18.3453 20.1207C19.2799 20.1207 19.8757 19.6534 19.8757 19.009C19.8757 18.2357 19.2636 17.9618 18.2325 17.5109L17.6688 17.2691C16.0416 16.5765 14.9621 15.7065 14.9621 13.8699C14.9621 12.1783 16.251 10.8894 18.2648 10.8894C19.6986 10.8894 20.7297 11.3889 21.4707 12.6938L19.7147 13.8215C19.328 13.1288 18.9093 12.855 18.2648 12.855C17.6043 12.855 17.1854 13.2738 17.1854 13.8215C17.1854 14.4981 17.6043 14.7721 18.5708 15.191L19.1346 15.4326C21.0517 16.2543 22.1312 17.0919 22.1312 18.9767C22.1312 21.0068 20.5363 22.1183 18.3936 22.1183C16.2994 22.1183 14.9461 21.1195 14.2856 19.8145Z" fill="#323330"/>
</svg>
