<svg width="24" height="24" viewBox="0 0 24 24" fill="none" xmlns="http://www.w3.org/2000/svg">
<path d="M18.375 0H5.625C2.5184 0 0 2.5184 0 5.625V18.375C0 21.4816 2.5184 24 5.625 24H18.375C21.4816 24 24 21.4816 24 18.375V5.625C24 2.5184 21.4816 0 18.375 0Z" fill="#F4F2ED"/>
<path d="M9.5282 17.1204C9.5282 17.1204 8.8082 17.5586 10.0293 17.684C11.5038 17.8719 12.2834 17.8404 13.9112 17.5276C13.9112 17.5276 14.3494 17.8097 14.9443 18.0286C11.281 19.5939 6.64773 17.9347 9.5282 17.1204ZM9.05861 15.0856C9.05861 15.0856 8.27579 15.6805 9.49679 15.8055C11.0932 15.962 12.3459 15.9934 14.5061 15.5555C14.5061 15.5555 14.7882 15.8687 15.2575 16.0252C10.8435 17.34 5.89661 16.1501 9.05861 15.0859V15.0856ZM17.6995 18.6547C17.6995 18.6547 18.2317 19.0929 17.1046 19.4375C15.0069 20.0635 8.3072 20.2517 6.42873 19.4375C5.77164 19.1554 7.02376 18.7482 7.43054 18.6861C7.83761 18.5921 8.0566 18.5921 8.0566 18.5921C7.3366 18.0911 3.26645 19.6253 5.99026 20.0667C13.4727 21.288 19.6405 19.5346 17.6993 18.6579L17.6995 18.6547ZM9.87254 12.9564C9.87254 12.9564 6.45986 13.7707 8.65117 14.0521C9.59045 14.1771 11.4375 14.146 13.1595 14.0207C14.5684 13.8956 15.9804 13.645 15.9804 13.645C15.9804 13.645 15.4794 13.8642 15.1351 14.0832C11.6571 14.9919 4.98854 14.5849 6.89842 13.6456C8.52686 12.8628 9.87254 12.9564 9.87254 12.9564ZM15.9772 16.369C19.4841 14.5531 17.8556 12.8 16.7286 13.0193C16.4465 13.0818 16.3215 13.1443 16.3215 13.1443C16.3215 13.1443 16.4154 12.9564 16.6346 12.8943C18.8574 12.1115 20.6109 15.2424 15.9147 16.4634C15.9147 16.4634 15.9461 16.4319 15.9772 16.3694V16.369ZM10.2168 21.3153C13.5981 21.5346 18.7638 21.1902 18.8891 19.5932C18.8891 19.5932 18.6391 20.2193 16.1029 20.6889C13.2227 21.2211 9.65326 21.1585 7.55589 20.8139C7.55589 20.8139 7.99407 21.1896 10.2171 21.3149L10.2168 21.3153Z" fill="#4E7896"/>
<path d="M13.8454 2.625C13.8454 2.625 15.7864 4.59741 11.9984 7.57125C8.96144 9.98175 11.3092 11.3595 11.9984 12.9245C10.2138 11.3281 8.93069 9.91894 9.80678 8.604C11.0935 6.66403 14.6308 5.72475 13.8454 2.625ZM12.8437 11.6102C13.7515 12.6433 12.5937 13.5826 12.5937 13.5826C12.5937 13.5826 14.9103 12.3933 13.8461 10.9213C12.8754 9.51244 12.1241 8.82356 16.1942 6.47522C16.1942 6.47522 9.77594 8.07159 12.8444 11.6095L12.8437 11.6102Z" fill="#F58219"/>
</svg>
