<svg width="24" height="24" viewBox="0 0 24 24" fill="none" xmlns="http://www.w3.org/2000/svg">
<path d="M18.375 0H5.625C2.5184 0 0 2.5184 0 5.625V18.375C0 21.4816 2.5184 24 5.625 24H18.375C21.4816 24 24 21.4816 24 18.375V5.625C24 2.5184 21.4816 0 18.375 0Z" fill="#F4F2ED"/>
<path d="M11.3859 2.62995C11.3456 2.6336 11.2173 2.64645 11.1018 2.65554C8.43872 2.89563 5.94422 4.33263 4.36425 6.5412C3.48459 7.76923 2.92181 9.16216 2.70928 10.6377C2.63419 11.1528 2.625 11.3049 2.625 12.0032C2.625 12.7015 2.63419 12.8537 2.70937 13.3686C3.21881 16.8895 5.72438 19.8478 9.12244 20.9438C9.73097 21.1399 10.3724 21.2737 11.1019 21.3544C11.386 21.3855 12.614 21.3855 12.8981 21.3544C14.1573 21.215 15.224 20.9035 16.276 20.3664C16.4373 20.284 16.4685 20.262 16.4465 20.2437C16.4318 20.2326 15.7445 19.3107 14.9198 18.1964L13.4205 16.1711L11.5417 13.3907C10.5081 11.8621 9.65766 10.612 9.65025 10.612C9.64294 10.6102 9.63562 11.8456 9.63197 13.354C9.62644 15.9951 9.62466 16.1014 9.59166 16.1637C9.54403 16.2535 9.50738 16.2902 9.43031 16.3306C9.37172 16.3598 9.32034 16.3654 9.04359 16.3654H8.72653L8.64216 16.3122C8.58992 16.2795 8.54748 16.2333 8.51934 16.1784L8.48091 16.0959L8.48466 12.4211L8.49009 8.74441L8.54691 8.67288C8.57625 8.63445 8.63859 8.58495 8.68256 8.56113C8.75766 8.52448 8.787 8.52082 9.10406 8.52082C9.47803 8.52082 9.54028 8.53545 9.6375 8.64176C9.66497 8.6711 10.6822 10.2034 11.8992 12.049C13.1313 13.9172 14.3642 15.7848 15.5978 17.652L17.0825 19.9009L17.1577 19.8514C17.8229 19.4189 18.5268 18.803 19.0839 18.1615C20.2698 16.7997 21.0341 15.1392 21.2907 13.3686C21.3658 12.8537 21.375 12.7015 21.375 12.0032C21.375 11.3048 21.3658 11.1528 21.2907 10.6377C20.7812 7.11682 18.2756 4.15863 14.8776 3.0626C14.2782 2.86826 13.6404 2.73448 12.9256 2.65385C12.7496 2.63548 11.5381 2.61541 11.386 2.63004M15.224 8.30088C15.3119 8.34485 15.3834 8.42913 15.4091 8.51707C15.4238 8.56479 15.4274 9.58385 15.4237 11.8804L15.4182 15.1759L14.8373 14.285L14.2544 13.3943V10.9988C14.2544 9.45007 14.2617 8.57941 14.2727 8.53723C14.302 8.43466 14.3662 8.35404 14.4542 8.30632C14.5293 8.26788 14.5568 8.26413 14.8446 8.26413C15.1159 8.26413 15.1635 8.26788 15.224 8.30088Z" fill="black"/>
</svg>
