<svg width="24" height="24" viewBox="0 0 24 24" fill="none" xmlns="http://www.w3.org/2000/svg">
<path d="M18.375 0H5.625C2.5184 0 0 2.5184 0 5.625V18.375C0 21.4816 2.5184 24 5.625 24H18.375C21.4816 24 24 21.4816 24 18.375V5.625C24 2.5184 21.4816 0 18.375 0Z" fill="#F4F2ED"/>
<path d="M7.94491 10.4963C7.94491 10.7245 7.96956 10.9095 8.01269 11.0453C8.06743 11.198 8.13343 11.3464 8.21013 11.4893C8.24097 11.5387 8.25325 11.588 8.25325 11.6312C8.25325 11.6929 8.21622 11.7546 8.13606 11.8162L7.74747 12.0753C7.69197 12.1122 7.63647 12.1308 7.58716 12.1308C7.52547 12.1308 7.46378 12.0999 7.4021 12.0444C7.31902 11.9551 7.24468 11.858 7.1801 11.7546C7.11116 11.636 7.04735 11.5146 6.98885 11.3906C6.50778 11.9581 5.90335 12.2418 5.17553 12.2418C4.65747 12.2418 4.24422 12.0938 3.94197 11.7977C3.63981 11.5016 3.4856 11.1069 3.4856 10.6135C3.4856 10.0892 3.67066 9.66366 4.04688 9.34294C4.4231 9.02222 4.92269 8.86181 5.55794 8.86181C5.76766 8.86181 5.98356 8.88038 6.21175 8.91122C6.43994 8.94206 6.67431 8.99137 6.92106 9.04688V8.59659C6.92106 8.12784 6.82235 7.80094 6.63119 7.60978C6.43375 7.41853 6.10075 7.32609 5.62581 7.32609C5.40991 7.32609 5.18791 7.35075 4.95972 7.40625C4.73153 7.46175 4.50944 7.52962 4.29353 7.61597C4.2234 7.64731 4.15131 7.67409 4.07772 7.69613C4.0346 7.7085 4.00366 7.71469 3.979 7.71469C3.89275 7.71469 3.84944 7.653 3.84944 7.52344V7.22119C3.84944 7.12256 3.86181 7.0485 3.89266 7.00537C3.9235 6.96225 3.979 6.91903 4.06535 6.87581C4.28122 6.76481 4.54028 6.67231 4.84253 6.59831C5.14469 6.51806 5.46541 6.48113 5.80469 6.48113C6.53866 6.48113 7.07519 6.64762 7.42066 6.98062C7.75985 7.31372 7.93253 7.8195 7.93253 8.49797V10.4963H7.94491ZM5.44085 11.4338C5.64428 11.4338 5.854 11.3968 6.0761 11.3228C6.2981 11.2488 6.49544 11.113 6.66203 10.9281C6.76066 10.8109 6.83472 10.6813 6.87166 10.5333C6.9086 10.3853 6.93335 10.2064 6.93335 9.99675V9.73762C6.74633 9.69212 6.5569 9.65713 6.36597 9.63281C6.17364 9.60849 5.97999 9.59612 5.78613 9.59578C5.37288 9.59578 5.07072 9.67603 4.86719 9.84253C4.66366 10.009 4.56494 10.2434 4.56494 10.5518C4.56494 10.8417 4.639 11.0575 4.79313 11.2056C4.94125 11.3598 5.15716 11.4338 5.44085 11.4338ZM10.3934 12.0999C10.2824 12.0999 10.2083 12.0814 10.159 12.0383C10.1097 12.0012 10.0665 11.9149 10.0295 11.7977L8.58016 7.03003C8.54303 6.90666 8.52456 6.8265 8.52456 6.78328C8.52456 6.68466 8.57388 6.62906 8.6726 6.62906H9.277C9.39419 6.62906 9.47444 6.64762 9.51756 6.69075C9.56688 6.72778 9.60391 6.81412 9.64094 6.93131L10.6771 11.0144L11.6393 6.93131C11.6702 6.80794 11.7071 6.72787 11.7565 6.69075C11.8058 6.65381 11.8922 6.62916 12.0032 6.62916H12.4966C12.6138 6.62916 12.694 6.64762 12.7433 6.69075C12.7926 6.72778 12.8358 6.81412 12.8605 6.93131L13.835 11.0637L14.902 6.93131C14.939 6.80794 14.9823 6.72787 15.0254 6.69075C15.0747 6.65381 15.1549 6.62916 15.2659 6.62916H15.8395C15.9382 6.62916 15.9937 6.67847 15.9937 6.78328C15.9937 6.81422 15.9875 6.84497 15.9813 6.882C15.9753 6.91903 15.9629 6.96825 15.9382 7.03622L14.4518 11.8039C14.4148 11.9272 14.3716 12.0074 14.3223 12.0444C14.2729 12.0814 14.1927 12.1061 14.0879 12.1061H13.5574C13.4403 12.1061 13.3601 12.0876 13.3108 12.0444C13.2614 12.0012 13.2183 11.9211 13.1936 11.7977L12.2375 7.8195L11.2878 11.7915C11.2569 11.9149 11.2199 11.995 11.1706 12.0383C11.1212 12.0814 11.0348 12.0999 10.9238 12.0999H10.3934ZM18.319 12.2664C17.9983 12.2664 17.6776 12.2294 17.3691 12.1554C17.0608 12.0814 16.8202 12.0012 16.6598 11.9087C16.5612 11.8532 16.4933 11.7915 16.4687 11.736C16.4447 11.6816 16.4321 11.6228 16.4316 11.5633V11.2488C16.4316 11.1192 16.4809 11.0575 16.5735 11.0575C16.6105 11.0575 16.6475 11.0637 16.6845 11.0761C16.7215 11.0884 16.777 11.113 16.8387 11.1378C17.0566 11.2336 17.284 11.3059 17.5172 11.3536C17.7587 11.4026 18.0046 11.4275 18.2511 11.4277C18.6397 11.4277 18.9419 11.3598 19.1516 11.2241C19.3613 11.0884 19.4723 10.891 19.4723 10.6382C19.4723 10.4655 19.4168 10.3236 19.3058 10.2064C19.1948 10.0892 18.9851 9.98437 18.6828 9.88566L17.7886 9.60816C17.3383 9.46631 17.0052 9.25659 16.8017 8.97909C16.5981 8.70769 16.4933 8.40534 16.4933 8.08472C16.4933 7.82572 16.5488 7.5975 16.6598 7.40006C16.7708 7.20272 16.9188 7.03003 17.1039 6.89438C17.289 6.75244 17.4987 6.64762 17.7453 6.57356C17.9921 6.4995 18.2511 6.46875 18.5225 6.46875C18.6582 6.46875 18.8 6.47494 18.9358 6.49341C19.0776 6.51188 19.2071 6.53653 19.3367 6.56128C19.46 6.59212 19.5772 6.62297 19.6882 6.66C19.7992 6.69694 19.8856 6.73394 19.9473 6.771C20.0336 6.82031 20.0953 6.86962 20.1323 6.92512C20.1693 6.9745 20.1878 7.04238 20.1878 7.12875V7.41863C20.1878 7.54809 20.1385 7.61597 20.046 7.61597C19.9966 7.61597 19.9164 7.59131 19.8116 7.54191C19.46 7.38159 19.0653 7.30144 18.6273 7.30144C18.2758 7.30144 17.9983 7.35694 17.807 7.47412C17.6158 7.59131 17.5172 7.77019 17.5172 8.02303C17.5172 8.19572 17.5788 8.34375 17.7022 8.46094C17.8256 8.57812 18.0538 8.69531 18.3807 8.80012L19.2565 9.07763C19.7005 9.21956 20.0213 9.41691 20.2125 9.66984C20.4036 9.92278 20.4962 10.2126 20.4962 10.5333C20.4962 10.7985 20.4407 11.0391 20.3358 11.2488C20.2248 11.4585 20.0768 11.6435 19.8856 11.7915C19.6944 11.9457 19.4661 12.0567 19.201 12.137C18.9234 12.2233 18.6335 12.2664 18.319 12.2664Z" fill="#252F3E"/>
<path fill-rule="evenodd" clip-rule="evenodd" d="M19.4848 15.2639C17.4555 16.7627 14.5074 17.5583 11.9724 17.5583C8.41983 17.5583 5.21864 16.2445 2.80092 14.0612C2.60967 13.8885 2.78245 13.6541 3.01064 13.7898C5.6258 15.307 8.85155 16.2261 12.1883 16.2261C14.4395 16.2261 16.9128 15.7573 19.1887 14.7952C19.5279 14.6409 19.8178 15.0172 19.4848 15.2639Z" fill="#FF9900"/>
<path fill-rule="evenodd" clip-rule="evenodd" d="M20.3298 14.3018C20.0707 13.9687 18.6152 14.1414 17.9552 14.2216C17.7578 14.2463 17.727 14.0735 17.9059 13.9441C19.0654 13.1299 20.9712 13.3643 21.1933 13.6356C21.4153 13.9132 21.1316 15.8191 20.0461 16.7319C19.8795 16.8737 19.7192 16.7997 19.7931 16.6147C20.0399 16.0041 20.5888 14.6286 20.3298 14.3018Z" fill="#FF9900"/>
</svg>
