<svg width="24" height="24" viewBox="0 0 24 24" fill="none" xmlns="http://www.w3.org/2000/svg">
<path d="M18.375 0H5.625C2.5184 0 0 2.5184 0 5.625V18.375C0 21.4816 2.5184 24 5.625 24H18.375C21.4816 24 24 21.4816 24 18.375V5.625C24 2.5184 21.4816 0 18.375 0Z" fill="#F4F2ED"/>
<mask id="mask0_62_64" style="mask-type:luminance" maskUnits="userSpaceOnUse" x="2" y="2" width="20" height="20">
<path d="M2.625 2.625H21.375V21.375H2.625V2.625Z" fill="white"/>
</mask>
<g mask="url(#mask0_62_64)">
<path d="M20.6401 16.3565C19.6395 16.8784 14.4567 19.0093 13.3532 19.5844C12.2497 20.1595 11.6369 20.1541 10.765 19.7375C9.8931 19.3209 4.3777 17.0931 3.38348 16.6179C2.88641 16.3803 2.62598 16.1805 2.62598 15.9916V14.0963C2.62598 14.0963 9.80713 12.533 10.9667 12.117C12.1263 11.7009 12.5276 11.686 13.5148 12.0474C14.5019 12.4087 20.4006 13.473 21.3753 13.8304V15.6994C21.3753 15.8868 21.1507 16.097 20.6412 16.3575L20.6401 16.3565Z" fill="#A41E11"/>
<path d="M20.6402 14.4604C19.6395 14.9823 14.4567 17.1133 13.3532 17.6883C12.2497 18.2635 11.6368 18.258 10.765 17.8414C9.89309 17.4249 4.37768 15.197 3.38356 14.7219C2.38934 14.2467 2.36947 13.9202 3.34522 13.5378L10.9662 10.5872C12.1255 10.1717 12.5271 10.1563 13.5142 10.5177C14.5013 10.8791 19.653 12.9295 20.6273 13.2923C21.6015 13.6551 21.6398 13.9435 20.6392 14.4654L20.6402 14.4604Z" fill="#D82C20"/>
<path d="M20.6401 13.2657C19.6395 13.7876 14.4567 15.9185 13.3532 16.4936C12.2497 17.0687 11.6369 17.0632 10.765 16.6466C9.8931 16.2301 4.3777 14.0022 3.38348 13.5271C2.88641 13.2895 2.62598 13.0897 2.62598 12.9008V11.0054C2.62598 11.0054 9.80713 9.44215 10.9667 9.02618C12.1264 8.61012 12.5276 8.59521 13.5148 8.95653C14.5019 9.31784 20.4006 10.3822 21.3753 10.7396V12.6086C21.3753 12.7959 21.1507 13.0061 20.6412 13.2666L20.6401 13.2657Z" fill="#A41E11"/>
<path d="M20.6402 11.3702C19.6395 11.8921 14.4567 14.0231 13.3532 14.5982C12.2497 15.1733 11.6368 15.1679 10.765 14.7513C9.89309 14.3347 4.37768 12.1069 3.38356 11.6317C2.38934 11.1565 2.36947 10.8299 3.34522 10.4476L10.9662 7.4976C12.1255 7.08154 12.5271 7.06663 13.5142 7.42804C14.5014 7.78935 19.653 9.84023 20.6282 10.1967C21.6034 10.5531 21.6408 10.8479 20.6402 11.3698V11.3702Z" fill="#D82C20"/>
<path d="M20.6401 10.0605C19.6395 10.5824 14.4567 12.7134 13.3532 13.289C12.2498 13.8646 11.6369 13.8586 10.765 13.4421C9.8931 13.0256 4.3777 10.7977 3.38348 10.3225C2.88641 10.0849 2.62598 9.88513 2.62598 9.69623V7.79985C2.62598 7.79985 9.80713 6.23666 10.9667 5.8206C12.1263 5.40454 12.5276 5.38963 13.5148 5.75104C14.5019 6.11235 20.4006 7.1766 21.3753 7.53398V9.40298C21.3753 9.59038 21.1507 9.80057 20.6412 10.0611L20.6401 10.0605Z" fill="#A41E11"/>
<path d="M20.6402 8.16466C19.6395 8.68657 14.4567 10.8175 13.3532 11.3927C12.2497 11.9677 11.6368 11.9623 10.765 11.5458C9.89309 11.1292 4.37768 8.90135 3.38356 8.42613C2.38934 7.95091 2.36947 7.62438 3.34522 7.24207L10.9662 4.29204C12.1255 3.87597 12.5271 3.86107 13.5142 4.22247C14.5014 4.58379 19.653 6.63466 20.6282 6.9911C21.6034 7.34754 21.6408 7.64229 20.6402 8.16419V8.16466Z" fill="#D82C20"/>
<path d="M12.4685 7.38334L11.881 6.40665L10.0051 6.23762L11.4048 5.73259L10.9847 4.95728L12.2951 5.46915L13.5307 5.06453L13.1967 5.86581L14.4563 6.33803L12.8319 6.50706L12.4685 7.38334ZM9.33896 9.3279L13.6833 8.66087L12.3711 10.5855L9.33896 9.3279ZM8.16793 8.62656C9.45043 8.62656 10.4902 8.22343 10.4902 7.72637C10.4902 7.22931 9.45043 6.82618 8.16793 6.82618C6.88543 6.82618 5.84546 7.22912 5.84546 7.72637C5.84546 8.22362 6.88524 8.62656 8.16793 8.62656Z" fill="white"/>
<path d="M18.9482 7.59514L16.3784 8.61018L16.3765 6.57861L18.9482 7.59514Z" fill="#7A0C00"/>
<path d="M16.3789 8.61001L16.1005 8.71941L13.5327 7.70438L16.3774 6.5791L16.3789 8.61001Z" fill="#AD2115"/>
</g>
</svg>
