<svg width="24" height="24" viewBox="0 0 24 24" fill="none" xmlns="http://www.w3.org/2000/svg">
<path d="M18.375 0H5.625C2.5184 0 0 2.5184 0 5.625V18.375C0 21.4816 2.5184 24 5.625 24H18.375C21.4816 24 24 21.4816 24 18.375V5.625C24 2.5184 21.4816 0 18.375 0Z" fill="#007ACC"/>
<path d="M5.3074 12.0796L5.2998 13.0625H8.42355V21.9386H10.6331V13.0625H13.7569V12.0987C13.7569 11.5653 13.7456 11.1196 13.7303 11.1082C13.7188 11.093 11.8179 11.0853 9.51312 11.0892L5.31884 11.1006L5.3074 12.0796ZM19.3658 11.0727C19.9752 11.2251 20.4401 11.4956 20.8667 11.9374C21.0877 12.1737 21.4152 12.6042 21.442 12.707C21.4496 12.7375 20.4057 13.4384 19.7734 13.8308C19.7505 13.8461 19.659 13.747 19.5562 13.5946C19.2476 13.1451 18.9238 12.9507 18.4286 12.9165C17.701 12.8669 17.2324 13.2479 17.2362 13.8841C17.2362 14.0708 17.2629 14.1812 17.3391 14.3336C17.499 14.6651 17.7962 14.8632 18.7296 15.2669C20.4476 16.0061 21.1828 16.4936 21.6401 17.1869C22.1505 17.9603 22.2648 19.1946 21.9181 20.1127C21.5372 21.1107 20.5924 21.7888 19.2628 22.0136C18.8515 22.086 17.8762 22.0746 17.4343 21.9946C16.4705 21.8231 15.5562 21.347 14.9924 20.7222C14.7715 20.4784 14.341 19.8422 14.3677 19.7965C14.379 19.7813 14.4781 19.7203 14.5886 19.6556C14.6952 19.5946 15.0991 19.3622 15.48 19.1412L16.1696 18.7412L16.3143 18.9546C16.5162 19.2631 16.9581 19.686 17.2248 19.8269C17.9905 20.2308 19.042 20.1736 19.56 19.7089C19.781 19.507 19.8724 19.2974 19.8724 18.9889C19.8724 18.7107 19.8381 18.5889 19.6933 18.3793C19.5067 18.1127 19.1258 17.8879 18.0438 17.4193C16.8057 16.886 16.2724 16.5546 15.7848 16.0288C15.5029 15.7241 15.2362 15.2365 15.1257 14.8288C15.0343 14.4898 15.0115 13.6403 15.0838 13.2974C15.339 12.1013 16.2419 11.267 17.5448 11.0193C17.9677 10.9393 18.9505 10.9698 19.3658 11.0727Z" fill="white"/>
</svg>
