<svg width="24" height="24" viewBox="0 0 24 24" fill="none" xmlns="http://www.w3.org/2000/svg">
<rect width="24" height="24" rx="4" fill="#F4F2ED"/>
<path d="M5.32977 19.5449L4.77335 4.71879C4.75498 4.22914 5.13042 3.81417 5.61946 3.7836L18.2301 2.99544C18.7278 2.96433 19.1566 3.34264 19.1877 3.84042C19.1889 3.85918 19.1895 3.87796 19.1895 3.89676V20.0524C19.1895 20.5511 18.7852 20.9555 18.2864 20.9555C18.2729 20.9555 18.2594 20.9552 18.2459 20.9545L6.19169 20.4132C5.72223 20.3921 5.3474 20.0145 5.32977 19.5449Z" fill="#FF4785"/>
<mask id="mask0_63_100" style="mask-type:luminance" maskUnits="userSpaceOnUse" x="4" y="2" width="16" height="19">
<path d="M5.32977 19.5449L4.77335 4.71879C4.75498 4.22914 5.13042 3.81417 5.61946 3.7836L18.2301 2.99544C18.7278 2.96433 19.1566 3.34264 19.1877 3.84042C19.1889 3.85918 19.1895 3.87796 19.1895 3.89676V20.0524C19.1895 20.5511 18.7852 20.9555 18.2864 20.9555C18.2729 20.9555 18.2594 20.9552 18.2459 20.9545L6.19169 20.4132C5.72223 20.3921 5.3474 20.0145 5.32977 19.5449Z" fill="white"/>
</mask>
<g mask="url(#mask0_63_100)">
<path d="M15.4183 5.20144L15.5045 3.12972L17.2363 2.99365L17.3109 5.13015C17.3135 5.2045 17.2553 5.26688 17.181 5.26948C17.1491 5.27059 17.1179 5.26038 17.0929 5.24067L16.4251 4.71457L15.6343 5.31437C15.5751 5.35933 15.4906 5.34773 15.4456 5.28846C15.4267 5.2635 15.417 5.23274 15.4183 5.20144ZM13.2035 9.7637C13.2035 10.115 15.5701 9.94666 15.8878 9.69986C15.8878 7.30726 14.604 6.04999 12.2531 6.04999C9.90227 6.04999 8.58512 7.32683 8.58512 9.24208C8.58512 12.5778 13.0868 12.6416 13.0868 14.4611C13.0868 14.9719 12.8367 15.2751 12.2865 15.2751C11.5696 15.2751 11.2861 14.909 11.3195 13.6641C11.3195 13.394 8.58512 13.3098 8.50175 13.6641C8.28947 16.6809 10.169 17.5511 12.3198 17.5511C14.4039 17.5511 16.0379 16.4402 16.0379 14.4292C16.0379 10.8541 11.4695 10.9498 11.4695 9.17823C11.4695 8.46001 12.0031 8.36425 12.3198 8.36425C12.6533 8.36425 13.2535 8.42303 13.2035 9.7637Z" fill="white"/>
</g>
</svg>
