<svg width="24" height="24" viewBox="0 0 24 24" fill="none" xmlns="http://www.w3.org/2000/svg">
<path d="M18.375 0H5.625C2.5184 0 0 2.5184 0 5.625V18.375C0 21.4816 2.5184 24 5.625 24H18.375C21.4816 24 24 21.4816 24 18.375V5.625C24 2.5184 21.4816 0 18.375 0Z" fill="#F4F2EE"/>
<path d="M17.0625 4.6875H20.4375L12 19.2422L3.5625 4.6875H10.0172L12 8.0625L13.9406 4.6875H17.0625Z" fill="#41B883"/>
<path d="M3.5625 4.6875L12 19.2422L20.4375 4.6875H17.0625L12 13.4203L6.89531 4.6875H3.5625Z" fill="#41B883"/>
<path d="M6.89526 4.6875L12 13.4625L17.0625 4.6875H13.9406L12 8.0625L10.0171 4.6875H6.89526Z" fill="#35495E"/>
</svg>
