<svg width="24" height="24" viewBox="0 0 24 24" fill="none" xmlns="http://www.w3.org/2000/svg">
<path d="M18.375 0H5.625C2.5184 0 0 2.5184 0 5.625V18.375C0 21.4816 2.5184 24 5.625 24H18.375C21.4816 24 24 21.4816 24 18.375V5.625C24 2.5184 21.4816 0 18.375 0Z" fill="#F4F2ED"/>
<path d="M12.0001 2.8125C6.82303 2.8125 2.625 7.00969 2.625 12.1876C2.625 16.3298 5.31122 19.8439 9.03628 21.0835C9.50475 21.1703 9.67678 20.8802 9.67678 20.6326C9.67678 20.409 9.66806 19.6705 9.66403 18.8872C7.05591 19.4543 6.50559 17.781 6.50559 17.781C6.07903 16.6973 5.46459 16.4093 5.46459 16.4093C4.614 15.8273 5.52872 15.8393 5.52872 15.8393C6.47016 15.9054 6.96591 16.8054 6.96591 16.8054C7.80206 18.2387 9.15909 17.8243 9.69403 17.5848C9.77822 16.9788 10.0211 16.5653 10.2892 16.3312C8.20697 16.0941 6.018 15.2902 6.018 11.6979C6.018 10.6744 6.38419 9.83803 6.98391 9.1815C6.8865 8.94534 6.56559 7.99181 7.07466 6.7005C7.07466 6.7005 7.86197 6.44859 9.65353 7.66144C10.4014 7.45378 11.2033 7.34963 12.0001 7.34606C12.7968 7.34963 13.5995 7.45378 14.3486 7.66153C16.138 6.4485 16.9242 6.70059 16.9242 6.70059C17.4345 7.99181 17.1135 8.94544 17.0161 9.1815C17.6172 9.83803 17.981 10.6744 17.981 11.6979C17.981 15.2988 15.7878 16.0916 13.7002 16.3237C14.0364 16.6147 14.3361 17.1851 14.3361 18.0598C14.3361 19.3142 14.3252 20.3238 14.3252 20.6326C14.3252 20.8821 14.4939 21.1744 14.9692 21.0823C18.6922 19.8413 21.375 16.3283 21.375 12.1876C21.375 7.00978 17.1775 2.8125 12.0001 2.8125ZM6.13631 16.1675C6.11569 16.2141 6.04238 16.228 5.97563 16.1961C5.90756 16.1655 5.86941 16.1019 5.89144 16.0553C5.91159 16.0073 5.98509 15.9939 6.05288 16.0261C6.12103 16.0567 6.15984 16.1208 6.13631 16.1675ZM6.59747 16.5789C6.55275 16.6205 6.46528 16.6012 6.40603 16.5356C6.34472 16.4703 6.33319 16.3829 6.37856 16.3408C6.42459 16.2994 6.50944 16.3188 6.57084 16.3841C6.63216 16.4503 6.64416 16.537 6.59747 16.5789ZM6.91378 17.1054C6.85631 17.1454 6.76237 17.108 6.70434 17.0245C6.64687 16.9412 6.64687 16.8413 6.70556 16.8011C6.76378 16.7611 6.85631 16.7971 6.91519 16.8799C6.97247 16.9646 6.97247 17.0647 6.91378 17.1054ZM7.44881 17.7152C7.39744 17.7718 7.28803 17.7566 7.20788 17.6793C7.12594 17.6037 7.10306 17.4965 7.15462 17.4398C7.20666 17.3829 7.31672 17.399 7.39744 17.4757C7.47881 17.551 7.50366 17.6591 7.44881 17.7152ZM8.14031 17.921C8.11763 17.9945 8.01225 18.0278 7.90603 17.9966C7.80009 17.9645 7.73063 17.8785 7.75209 17.8043C7.77413 17.7304 7.87997 17.6956 7.98694 17.729C8.09288 17.7609 8.16234 17.8463 8.14031 17.921ZM8.92725 18.0083C8.92987 18.0856 8.83987 18.1497 8.72841 18.1511C8.61628 18.1537 8.52563 18.091 8.52441 18.015C8.52441 17.9369 8.61244 17.8734 8.72447 17.8716C8.83603 17.8694 8.92725 17.9315 8.92725 18.0083ZM9.70031 17.9787C9.71372 18.0541 9.63628 18.1316 9.52556 18.1523C9.41672 18.1721 9.31594 18.1255 9.30216 18.0507C9.28866 17.9734 9.3675 17.8959 9.47616 17.8759C9.58706 17.8567 9.68625 17.902 9.70031 17.9787Z" fill="#161614"/>
</svg>
