<svg width="24" height="24" viewBox="0 0 24 24" fill="none" xmlns="http://www.w3.org/2000/svg">
<path d="M18.375 0H5.625C2.5184 0 0 2.5184 0 5.625V18.375C0 21.4816 2.5184 24 5.625 24H18.375C21.4816 24 24 21.4816 24 18.375V5.625C24 2.5184 21.4816 0 18.375 0Z" fill="#F4F2ED"/>
<mask id="mask0_62_73" style="mask-type:luminance" maskUnits="userSpaceOnUse" x="3" y="3" width="18" height="18">
<path d="M3.5625 3.5625H20.4375V20.4375H3.5625V3.5625Z" fill="white"/>
</mask>
<g mask="url(#mask0_62_73)">
<path fill-rule="evenodd" clip-rule="evenodd" d="M19.1062 16.7073C18.1884 16.6818 17.4764 16.7758 16.8797 17.0269C16.7078 17.0959 16.4321 17.0959 16.4094 17.3121C16.5013 17.4029 16.5124 17.5514 16.5929 17.6772C16.7304 17.9055 16.9717 18.213 17.1896 18.3725L17.924 18.8974C18.3716 19.1708 18.8765 19.3307 19.3126 19.6044C19.5651 19.7642 19.8175 19.9695 20.0701 20.1408C20.1987 20.232 20.2766 20.3806 20.4374 20.4373V20.4028C20.3571 20.3005 20.334 20.1523 20.254 20.0377L19.9093 19.7072C19.5768 19.2624 19.1633 18.8743 18.7158 18.5553C18.3484 18.3043 17.5454 17.9622 17.3961 17.5404L17.3735 17.5148C17.6256 17.4893 17.924 17.4005 18.1653 17.3321C18.5557 17.2298 18.9112 17.2523 19.3126 17.1498L19.8638 16.99V16.8877C19.6572 16.6825 19.508 16.4087 19.2902 16.215C18.705 15.7131 18.0619 15.2225 17.3961 14.812C17.0404 14.584 16.5813 14.4354 16.2026 14.2419C16.0645 14.1734 15.8353 14.1392 15.755 14.0252C15.5479 13.7747 15.4335 13.4435 15.2843 13.1468L14.3434 11.1623C14.1368 10.7175 14.0103 10.2726 13.7582 9.86211C12.5759 7.92307 11.2903 6.74848 9.31629 5.59629C8.89188 5.35676 8.38695 5.25373 7.85004 5.12848L6.98941 5.08254C6.80548 5.00276 6.62201 4.78592 6.46132 4.68317C5.80713 4.27254 4.12001 3.38304 3.63757 4.55539C3.32773 5.29667 4.09685 6.02651 4.35795 6.40311C4.55341 6.66542 4.80551 6.96185 4.9436 7.25848C5.02076 7.45226 5.04654 7.65776 5.12707 7.86307C5.31045 8.36482 5.48276 8.92395 5.72379 9.39176C5.85241 9.63129 5.98751 9.88254 6.1482 10.0991C6.24007 10.2269 6.40085 10.2816 6.43507 10.4869C6.27429 10.7151 6.26323 11.0569 6.17135 11.3425C5.75801 12.6314 5.91879 14.2281 6.50398 15.1771C6.68791 15.4621 7.12132 16.0896 7.70941 15.8499C8.22588 15.6446 8.11067 14.9945 8.25982 14.4242C8.29451 14.2875 8.27145 14.1962 8.34007 14.1047V14.1303L8.81079 15.0769C9.16657 15.6357 9.78654 16.2175 10.3027 16.6055C10.578 16.8109 10.7961 17.1647 11.1403 17.2899V17.2554H11.1177C11.0487 17.1531 10.9453 17.1071 10.8535 17.0273C10.647 16.8221 10.4175 16.571 10.2567 16.343C9.77491 15.7044 9.35051 14.9971 8.97157 14.2672C8.78773 13.9137 8.62695 13.5259 8.47826 13.1723C8.40879 13.0354 8.40879 12.8298 8.29432 12.7618C8.12191 13.0123 7.86991 13.2296 7.74307 13.5374C7.52491 14.0277 7.50232 14.6323 7.42207 15.2597C7.37576 15.2711 7.39629 15.2597 7.37576 15.2852C7.00892 15.1942 6.88235 14.8174 6.74482 14.4983C6.40057 13.6885 6.34292 12.3883 6.64132 11.4529C6.72157 11.2134 7.06629 10.4606 6.92866 10.2325C6.85929 10.0158 6.63026 9.89051 6.5037 9.71923C6.35454 9.50248 6.19432 9.22892 6.09091 8.98939C5.81566 8.35029 5.67804 7.64342 5.37935 7.0047C5.24126 6.70807 5.00051 6.40001 4.80523 6.12654C4.58707 5.81848 4.3466 5.60164 4.17429 5.23686C4.11691 5.10907 4.03666 4.9061 4.12845 4.76904C4.15113 4.67782 4.19735 4.64126 4.28876 4.62082C4.43782 4.49295 4.86288 4.65504 5.01204 4.72301C5.43645 4.89429 5.79223 5.05385 6.14801 5.2931C6.30879 5.4071 6.4811 5.62395 6.68763 5.68123H6.92895C7.29626 5.76092 7.70913 5.70673 8.05301 5.80901C8.66145 6.00326 9.21213 6.28807 9.70601 6.59632C11.2093 7.54301 12.4491 8.88889 13.2866 10.4974C13.4242 10.7597 13.4816 10.9992 13.6082 11.2729C13.8495 11.8321 14.1479 12.4022 14.3884 12.9499C14.6297 13.486 14.8591 14.0339 15.2033 14.4786C15.3756 14.7182 16.0639 14.8434 16.3737 14.9689C16.6034 15.0712 16.9589 15.1633 17.166 15.2885C17.5559 15.5281 17.9462 15.8018 18.3132 16.0641C18.4966 16.2006 19.0708 16.4859 19.1049 16.7134L19.1062 16.7073ZM7.4022 6.79573C7.24367 6.79437 7.08564 6.81353 6.93204 6.85273V6.87832H6.95463C7.04651 7.06085 7.20729 7.18639 7.32195 7.34614L7.58613 7.89364L7.60882 7.86814C7.76951 7.75414 7.85004 7.57161 7.85004 7.29814C7.78113 7.21836 7.76979 7.13829 7.71241 7.05851C7.64351 6.94451 7.49435 6.88723 7.4022 6.79629V6.79573Z" fill="#00678C"/>
</g>
</svg>
