<svg width="0" height="0" fill="none" style="visibility: hidden; position: absolute;" aria-hidden="true">
    <symbol id="academy-cap" width="24" height="24" viewBox="0 0 24 24" fill="none" xmlns="http://www.w3.org/2000/svg">
        <path fill-rule="evenodd" clip-rule="evenodd" d="M9.46501 2.82C10.2574 2.44455 11.1232 2.24979 12 2.24979C12.8768 2.24979 13.7427 2.44455 14.535 2.82L21.227 5.958C22.279 6.451 22.75 7.522 22.75 8.5C22.75 9.478 22.28 10.55 21.227 11.043L19.75 11.735V16.625C19.75 17.878 19.122 19.088 17.978 19.722C17.226 20.138 16.238 20.639 15.198 21.038C14.171 21.432 13.034 21.75 12 21.75C10.966 21.75 9.82901 21.432 8.80101 21.038C7.76101 20.639 6.77401 20.138 6.02201 19.722C4.87801 19.088 4.25001 17.878 4.25001 16.625V11.5C4.25001 11.4587 4.25334 11.418 4.26001 11.378C4.23794 11.2432 4.25311 11.1049 4.30388 10.9781C4.35465 10.8513 4.43908 10.7408 4.54808 10.6584C4.65707 10.5761 4.78649 10.5251 4.92235 10.5109C5.05821 10.4967 5.19536 10.5199 5.31901 10.578L10.101 12.821C10.6943 13.1033 11.343 13.2497 12 13.2497C12.657 13.2497 13.3057 13.1033 13.899 12.821L20.59 9.684C20.993 9.495 21.25 9.044 21.25 8.5C21.25 7.956 20.993 7.505 20.59 7.316L13.9 4.179C13.3067 3.89673 12.658 3.75027 12.001 3.75027C11.344 3.75027 10.6953 3.89673 10.102 4.179L3.41201 7.316C3.23192 7.40061 3.02561 7.41021 2.83845 7.3427C2.65129 7.27518 2.49861 7.13609 2.41401 6.956C2.3294 6.77592 2.3198 6.56961 2.38731 6.38245C2.45483 6.19528 2.59392 6.04261 2.77401 5.958L9.46501 2.82ZM5.75001 12.439V16.626C5.75001 17.389 6.12901 18.067 6.74901 18.411C7.46501 18.807 8.38701 19.273 9.33901 19.638C10.302 20.008 11.238 20.251 12 20.251C12.762 20.251 13.698 20.008 14.662 19.638C15.5523 19.2885 16.4176 18.8785 17.252 18.411C17.872 18.067 18.25 17.389 18.25 16.626V12.439L14.536 14.18C13.7435 14.5556 12.8775 14.7505 12.0005 14.7505C11.1235 14.7505 10.2575 14.5556 9.46501 14.18L5.75001 12.439Z" fill="black"/>
        <path d="M6.69 7.70501C6.76804 7.88789 6.77027 8.09426 6.6962 8.27878C6.62213 8.4633 6.47782 8.61085 6.295 8.68901L5.22 9.15001C4.617 9.40901 4.22 9.58001 3.928 9.74401C3.652 9.89901 3.532 10.015 3.456 10.131C3.38 10.247 3.321 10.401 3.287 10.716C3.251 11.049 3.25 11.482 3.25 12.138V15C3.25 15.1989 3.17098 15.3897 3.03033 15.5303C2.88968 15.671 2.69891 15.75 2.5 15.75C2.30109 15.75 2.11032 15.671 1.96967 15.5303C1.82902 15.3897 1.75 15.1989 1.75 15V12.099C1.75 11.492 1.75 10.979 1.796 10.555C1.844 10.105 1.95 9.69101 2.204 9.30501C2.459 8.91901 2.798 8.65901 3.193 8.43701C3.563 8.22801 4.036 8.02601 4.593 7.78701L5.705 7.31101C5.88775 7.23291 6.09403 7.23054 6.27852 7.30441C6.46302 7.37829 6.61165 7.52237 6.69 7.70501Z" fill="black"/>
    </symbol>
    <symbol id="arrow-down" width="24" height="24" viewBox="0 0 24 24" fill="none" xmlns="http://www.w3.org/2000/svg">
        <path d="M12 4V20M12 20L18 14M12 20L6 14" stroke="black" stroke-width="1.5" stroke-linecap="round" stroke-linejoin="round"/>
    </symbol>
    <symbol id="book" width="24" height="24" viewBox="0 0 24 24" fill="none" xmlns="http://www.w3.org/2000/svg">
        <path fill-rule="evenodd" clip-rule="evenodd" d="M9.945 1.25H14.055C15.423 1.25 16.525 1.25 17.392 1.367C18.292 1.487 19.05 1.747 19.652 2.348C20.254 2.95 20.512 3.708 20.634 4.608C20.75 5.475 20.75 6.578 20.75 7.945V16.055C20.75 17.422 20.75 18.525 20.634 19.392C20.513 20.292 20.254 21.05 19.652 21.652C19.05 22.254 18.292 22.512 17.392 22.634C16.525 22.75 15.422 22.75 14.055 22.75H9.945C8.578 22.75 7.475 22.75 6.608 22.634C5.708 22.512 4.95 22.254 4.348 21.652C3.746 21.05 3.488 20.292 3.367 19.392C3.32727 19.0789 3.29992 18.7643 3.285 18.449C3.24498 18.3221 3.23945 18.1868 3.269 18.057C3.25254 17.3898 3.24621 16.7224 3.25 16.055V7.945C3.25 6.578 3.25 5.475 3.367 4.608C3.487 3.708 3.747 2.95 4.349 2.348C4.95 1.746 5.709 1.488 6.609 1.367C7.475 1.25 8.578 1.25 9.945 1.25ZM4.777 18.25C4.792 18.603 4.816 18.914 4.853 19.192C4.952 19.926 5.133 20.314 5.409 20.591C5.686 20.868 6.075 21.048 6.809 21.147C7.564 21.248 8.565 21.25 10 21.25H14C15.436 21.25 16.437 21.248 17.192 21.147C17.926 21.048 18.314 20.867 18.592 20.591C18.788 20.395 18.935 20.142 19.04 19.75H8C7.80108 19.75 7.61032 19.671 7.46967 19.5303C7.32901 19.3897 7.25 19.1989 7.25 19C7.25 18.8011 7.32901 18.6103 7.46967 18.4697C7.61032 18.329 7.80108 18.25 8 18.25H19.223C19.242 17.819 19.248 17.325 19.249 16.75H7.898C6.92 16.75 6.578 16.756 6.316 16.827C5.96317 16.9213 5.6386 17.1 5.37029 17.3477C5.10198 17.5955 4.89802 17.9048 4.776 18.249M19.249 15.249H7.782C6.964 15.249 6.406 15.249 5.927 15.377C5.50613 15.4908 5.10799 15.6762 4.75 15.925V8C4.75 6.565 4.752 5.563 4.853 4.808C4.952 4.074 5.133 3.686 5.409 3.409C5.686 3.132 6.075 2.952 6.809 2.853C7.564 2.752 8.565 2.75 10 2.75H14C15.436 2.75 16.437 2.752 17.192 2.853C17.926 2.952 18.314 3.133 18.592 3.409C18.868 3.686 19.048 4.074 19.147 4.809C19.249 5.563 19.25 6.565 19.25 8L19.249 15.249ZM7.25 7C7.25 6.80109 7.32901 6.61032 7.46967 6.46967C7.61032 6.32902 7.80108 6.25 8 6.25H16C16.1989 6.25 16.3897 6.32902 16.5303 6.46967C16.671 6.61032 16.75 6.80109 16.75 7C16.75 7.19891 16.671 7.38968 16.5303 7.53033C16.3897 7.67098 16.1989 7.75 16 7.75H8C7.80108 7.75 7.61032 7.67098 7.46967 7.53033C7.32901 7.38968 7.25 7.19891 7.25 7ZM7.25 10.5C7.25 10.3011 7.32901 10.1103 7.46967 9.96967C7.61032 9.82902 7.80108 9.75 8 9.75H13C13.1989 9.75 13.3897 9.82902 13.5303 9.96967C13.671 10.1103 13.75 10.3011 13.75 10.5C13.75 10.6989 13.671 10.8897 13.5303 11.0303C13.3897 11.171 13.1989 11.25 13 11.25H8C7.80108 11.25 7.61032 11.171 7.46967 11.0303C7.32901 10.8897 7.25 10.6989 7.25 10.5Z" fill="black"/>
    </symbol>
    <symbol id="calendar" width="24" height="24" viewBox="0 0 24 24" fill="none" xmlns="http://www.w3.org/2000/svg">
        <path d="M2 12C2 8.229 2 6.343 3.172 5.172C4.344 4.001 6.229 4 10 4H14C17.771 4 19.657 4 20.828 5.172C21.999 6.344 22 8.229 22 12V14C22 17.771 22 19.657 20.828 20.828C19.656 21.999 17.771 22 14 22H10C6.229 22 4.343 22 3.172 20.828C2.001 19.656 2 17.771 2 14V12Z" stroke="black" stroke-width="1.5"/>
        <path d="M7 4V2.5M17 4V2.5M2.5 9H21.5" stroke="black" stroke-width="1.5" stroke-linecap="round"/>
        <path d="M18 17C18 17.2652 17.8946 17.5196 17.7071 17.7071C17.5196 17.8946 17.2652 18 17 18C16.7348 18 16.4804 17.8946 16.2929 17.7071C16.1054 17.5196 16 17.2652 16 17C16 16.7348 16.1054 16.4804 16.2929 16.2929C16.4804 16.1054 16.7348 16 17 16C17.2652 16 17.5196 16.1054 17.7071 16.2929C17.8946 16.4804 18 16.7348 18 17ZM18 13C18 13.2652 17.8946 13.5196 17.7071 13.7071C17.5196 13.8946 17.2652 14 17 14C16.7348 14 16.4804 13.8946 16.2929 13.7071C16.1054 13.5196 16 13.2652 16 13C16 12.7348 16.1054 12.4804 16.2929 12.2929C16.4804 12.1054 16.7348 12 17 12C17.2652 12 17.5196 12.1054 17.7071 12.2929C17.8946 12.4804 18 12.7348 18 13ZM13 17C13 17.2652 12.8946 17.5196 12.7071 17.7071C12.5196 17.8946 12.2652 18 12 18C11.7348 18 11.4804 17.8946 11.2929 17.7071C11.1054 17.5196 11 17.2652 11 17C11 16.7348 11.1054 16.4804 11.2929 16.2929C11.4804 16.1054 11.7348 16 12 16C12.2652 16 12.5196 16.1054 12.7071 16.2929C12.8946 16.4804 13 16.7348 13 17ZM13 13C13 13.2652 12.8946 13.5196 12.7071 13.7071C12.5196 13.8946 12.2652 14 12 14C11.7348 14 11.4804 13.8946 11.2929 13.7071C11.1054 13.5196 11 13.2652 11 13C11 12.7348 11.1054 12.4804 11.2929 12.2929C11.4804 12.1054 11.7348 12 12 12C12.2652 12 12.5196 12.1054 12.7071 12.2929C12.8946 12.4804 13 12.7348 13 13ZM8 17C8 17.2652 7.89464 17.5196 7.70711 17.7071C7.51957 17.8946 7.26522 18 7 18C6.73478 18 6.48043 17.8946 6.29289 17.7071C6.10536 17.5196 6 17.2652 6 17C6 16.7348 6.10536 16.4804 6.29289 16.2929C6.48043 16.1054 6.73478 16 7 16C7.26522 16 7.51957 16.1054 7.70711 16.2929C7.89464 16.4804 8 16.7348 8 17ZM8 13C8 13.2652 7.89464 13.5196 7.70711 13.7071C7.51957 13.8946 7.26522 14 7 14C6.73478 14 6.48043 13.8946 6.29289 13.7071C6.10536 13.5196 6 13.2652 6 13C6 12.7348 6.10536 12.4804 6.29289 12.2929C6.48043 12.1054 6.73478 12 7 12C7.26522 12 7.51957 12.1054 7.70711 12.2929C7.89464 12.4804 8 12.7348 8 13Z" fill="black"/>
    </symbol>
    <symbol id="edit" width="24" height="24" viewBox="0 0 24 24" fill="none" xmlns="http://www.w3.org/2000/svg">
        <path fill-rule="evenodd" clip-rule="evenodd" d="M11.943 1.25H13.5C13.6989 1.25 13.8897 1.32902 14.0303 1.46967C14.171 1.61032 14.25 1.80109 14.25 2C14.25 2.19891 14.171 2.38968 14.0303 2.53033C13.8897 2.67098 13.6989 2.75 13.5 2.75H12C9.622 2.75 7.914 2.752 6.614 2.926C5.335 3.098 4.564 3.426 3.994 3.995C3.425 4.565 3.098 5.335 2.926 6.614C2.752 7.914 2.75 9.622 2.75 12C2.75 14.378 2.752 16.086 2.926 17.386C3.098 18.665 3.426 19.436 3.995 20.006C4.565 20.575 5.335 20.902 6.614 21.074C7.914 21.248 9.622 21.25 12 21.25C14.378 21.25 16.086 21.248 17.386 21.074C18.665 20.902 19.436 20.574 20.006 20.005C20.575 19.435 20.902 18.665 21.074 17.386C21.248 16.086 21.25 14.378 21.25 12V10.5C21.25 10.3011 21.329 10.1103 21.4697 9.96967C21.6103 9.82902 21.8011 9.75 22 9.75C22.1989 9.75 22.3897 9.82902 22.5303 9.96967C22.671 10.1103 22.75 10.3011 22.75 10.5V12.057C22.75 14.366 22.75 16.175 22.56 17.587C22.366 19.031 21.96 20.171 21.066 21.066C20.171 21.961 19.031 22.366 17.586 22.56C16.175 22.75 14.366 22.75 12.057 22.75H11.943C9.634 22.75 7.825 22.75 6.413 22.56C4.969 22.366 3.829 21.96 2.934 21.066C2.039 20.171 1.634 19.031 1.44 17.586C1.25 16.175 1.25 14.366 1.25 12.057V11.943C1.25 9.634 1.25 7.825 1.44 6.413C1.634 4.969 2.04 3.829 2.934 2.934C3.829 2.039 4.969 1.634 6.414 1.44C7.825 1.25 9.634 1.25 11.943 1.25ZM16.77 2.276C17.4299 1.63425 18.3159 1.27805 19.2364 1.28443C20.1569 1.29081 21.0379 1.65926 21.6889 2.3101C22.3399 2.96094 22.7085 3.84186 22.7151 4.76235C22.7216 5.68285 22.3656 6.56894 21.724 7.229L15.076 13.878C14.705 14.248 14.472 14.482 14.213 14.684C13.9073 14.9228 13.5763 15.1274 13.226 15.294C12.929 15.435 12.616 15.539 12.119 15.705L9.214 16.673C8.95118 16.7605 8.66917 16.7732 8.39958 16.7095C8.12998 16.6458 7.88344 16.5083 7.68756 16.3124C7.49168 16.1166 7.3542 15.87 7.29052 15.6004C7.22684 15.3308 7.23947 15.0488 7.327 14.786L8.295 11.881C8.461 11.383 8.565 11.071 8.706 10.774C8.874 10.4233 9.07733 10.0943 9.316 9.787C9.518 9.527 9.751 9.295 10.122 8.924L16.77 2.276ZM20.663 3.336C20.2874 2.96057 19.7781 2.74967 19.247 2.74967C18.7159 2.74967 18.2066 2.96057 17.831 3.336L17.455 3.713C17.4763 3.80967 17.509 3.92233 17.553 4.051C17.696 4.464 17.968 5.008 18.48 5.52C18.9786 6.01876 19.6031 6.373 20.287 6.545L20.663 6.169C21.0384 5.79339 21.2493 5.28406 21.2493 4.753C21.2493 4.22194 21.0384 3.71161 20.663 3.336ZM19.105 7.728C18.4753 7.45651 17.9031 7.06758 17.419 6.582C16.9334 6.09786 16.5445 5.52566 16.273 4.896L11.218 9.95C10.801 10.367 10.638 10.532 10.498 10.71C10.328 10.9308 10.1815 11.1688 10.061 11.42C9.963 11.623 9.889 11.843 9.702 12.402L9.271 13.697L10.303 14.73L11.598 14.298C12.158 14.111 12.377 14.037 12.581 13.94C12.833 13.82 13.0697 13.6737 13.291 13.501C13.468 13.362 13.633 13.199 14.05 12.783L19.105 7.728Z" fill="black"/>
    </symbol>
    <symbol id="github" width="24" height="24" viewBox="0 0 24 24" fill="none" xmlns="http://www.w3.org/2000/svg">
        <path fill-rule="evenodd" clip-rule="evenodd" d="M12 0.956818C5.74743 0.956818 0.677246 6.02588 0.677246 12.2796C0.677246 17.2824 3.92156 21.5265 8.42043 23.0239C8.98612 23.1289 9.19387 22.7783 9.19387 22.4792C9.19387 22.2092 9.18337 21.3173 9.1785 20.3711C6.0285 21.0561 5.36381 19.0352 5.36381 19.0352C4.84875 17.7264 4.10662 17.3784 4.10662 17.3784C3.07912 16.6757 4.18406 16.6903 4.18406 16.6903C5.32087 16.77 5.91975 17.8571 5.91975 17.8571C6.92962 19.5878 8.56856 19.0875 9.21468 18.7984C9.31631 18.0666 9.60975 17.5669 9.93356 17.2841C7.41862 16.9982 4.77468 16.0271 4.77468 11.6886C4.77468 10.4524 5.21718 9.44232 5.9415 8.64919C5.82375 8.36419 5.43618 7.21257 6.051 5.65294C6.051 5.65294 7.00162 5.34863 9.16537 6.81357C10.0687 6.56251 11.0376 6.43632 12 6.43201C12.9619 6.43632 13.9312 6.56213 14.8363 6.81319C16.9974 5.34826 17.9469 5.65257 17.9469 5.65257C18.5632 7.212 18.1757 8.36382 18.0581 8.64882C18.7841 9.44194 19.2234 10.452 19.2234 11.6882C19.2234 16.0371 16.5746 16.9944 14.0533 17.2749C14.4596 17.6263 14.8215 18.3156 14.8215 19.3718C14.8215 20.8868 14.8084 22.1061 14.8084 22.479C14.8084 22.7803 15.0124 23.1334 15.5861 23.0222C20.0824 21.5233 23.3229 17.2806 23.3229 12.2796C23.3227 6.02625 18.2531 0.956818 12 0.956818Z" fill="#181616"/>
        <path d="M4.96576 17.2136C4.94083 17.2699 4.85233 17.2867 4.7717 17.2483C4.6892 17.2115 4.64326 17.1349 4.66989 17.0784C4.69426 17.0203 4.78295 17.0044 4.86489 17.0432C4.94739 17.0801 4.99426 17.1575 4.96558 17.2138L4.96576 17.2136ZM5.42439 17.7253C5.37058 17.7754 5.26501 17.7521 5.19339 17.6728C5.11914 17.594 5.10526 17.4885 5.1602 17.4377C5.21608 17.3878 5.31845 17.4114 5.3927 17.4902C5.46658 17.57 5.4812 17.6747 5.42458 17.7255L5.42439 17.7253ZM5.87101 18.3772C5.80164 18.4256 5.68801 18.3804 5.61789 18.2797C5.54851 18.1789 5.54851 18.0579 5.61976 18.0097C5.6897 17.9614 5.80164 18.005 5.87289 18.1048C5.94189 18.207 5.94189 18.3281 5.87101 18.3772ZM6.48245 19.0074C6.42058 19.0759 6.2882 19.0575 6.19145 18.9643C6.09264 18.873 6.06508 18.743 6.12714 18.6748C6.19014 18.6062 6.32308 18.6253 6.42039 18.7179C6.5192 18.809 6.54901 18.9392 6.48283 19.0072L6.48245 19.0074ZM7.3262 19.3732C7.29864 19.4619 7.17151 19.5022 7.04308 19.4644C6.91501 19.4255 6.8312 19.3219 6.85745 19.2322C6.8837 19.1428 7.01176 19.101 7.14095 19.1413C7.26901 19.1799 7.35283 19.283 7.3262 19.3732ZM8.25301 19.4409C8.2562 19.5343 8.14745 19.6115 8.01301 19.6134C7.87745 19.6166 7.76776 19.5409 7.76645 19.449C7.76645 19.3547 7.87295 19.2784 8.00833 19.2757C8.14276 19.2733 8.2532 19.3483 8.2532 19.4407L8.25301 19.4409ZM9.11514 19.2943C9.13126 19.3852 9.0377 19.4788 8.90401 19.5037C8.77276 19.5281 8.65089 19.4715 8.63401 19.3813C8.61789 19.2879 8.71314 19.1944 8.84439 19.1702C8.97826 19.1471 9.09826 19.2019 9.11514 19.2943Z" fill="#181616"/>
    </symbol>
    <symbol id="home" width="24" height="24" viewBox="0 0 24 24" fill="none" xmlns="http://www.w3.org/2000/svg">
        <path d="M22 22H2M2 11L10.126 4.5C10.6579 4.07449 11.3188 3.84267 12 3.84267C12.6812 3.84267 13.3421 4.07449 13.874 4.5L22 11M15.5 5.5V3.5C15.5 3.36739 15.5527 3.24021 15.6464 3.14645C15.7402 3.05268 15.8674 3 16 3H18.5C18.6326 3 18.7598 3.05268 18.8536 3.14645C18.9473 3.24021 19 3.36739 19 3.5V8.5M4 22V9.5M20 22V9.5" stroke="black" stroke-width="1.5" stroke-linecap="round"/>
        <path d="M15 22V17C15 15.586 15 14.879 14.56 14.44C14.122 14 13.415 14 12 14C10.585 14 9.879 14 9.44 14.44C9 14.878 9 15.585 9 17V22M14 9.5C14 10.0304 13.7893 10.5391 13.4142 10.9142C13.0391 11.2893 12.5304 11.5 12 11.5C11.4696 11.5 10.9609 11.2893 10.5858 10.9142C10.2107 10.5391 10 10.0304 10 9.5C10 8.96957 10.2107 8.46086 10.5858 8.08579C10.9609 7.71071 11.4696 7.5 12 7.5C12.5304 7.5 13.0391 7.71071 13.4142 8.08579C13.7893 8.46086 14 8.96957 14 9.5Z" stroke="black" stroke-width="1.5"/>
    </symbol>
    <symbol id="message" width="24" height="24" viewBox="0 0 24 24" fill="none" xmlns="http://www.w3.org/2000/svg">
        <path d="M2 12C2 8.229 2 6.343 3.172 5.172C4.344 4.001 6.229 4 10 4H14C17.771 4 19.657 4 20.828 5.172C21.999 6.344 22 8.229 22 12C22 15.771 22 17.657 20.828 18.828C19.656 19.999 17.771 20 14 20H10C6.229 20 4.343 20 3.172 18.828C2.001 17.656 2 15.771 2 12Z" stroke="black" stroke-width="1.5"/>
        <path d="M6 8L8.159 9.8C9.996 11.33 10.914 12.095 12 12.095C13.086 12.095 14.005 11.33 15.841 9.799L18 8" stroke="black" stroke-width="1.5" stroke-linecap="round"/>
    </symbol>
    <symbol id="phone-call" width="24" height="24" viewBox="0 0 24 24" fill="none" xmlns="http://www.w3.org/2000/svg">
        <path d="M16.629 13.891L17.085 13.438L16.026 12.374L15.572 12.827L16.629 13.891ZM18.614 13.248L20.525 14.287L21.24 12.969L19.33 11.931L18.614 13.248ZM20.892 16.351L19.472 17.764L20.529 18.827L21.949 17.415L20.892 16.351ZM18.606 18.218C17.156 18.354 13.406 18.233 9.34399 14.195L8.28599 15.258C12.718 19.665 16.937 19.881 18.746 19.712L18.606 18.218ZM9.34399 14.195C5.47299 10.345 4.83099 7.10799 4.75099 5.70299L3.25299 5.78799C3.35299 7.55599 4.14799 11.144 8.28599 15.258L9.34399 14.195ZM10.719 8.01499L11.006 7.72899L9.94999 6.66599L9.66299 6.95099L10.719 8.01499ZM11.234 4.09399L9.97399 2.40999L8.77299 3.30999L10.033 4.99299L11.234 4.09399ZM5.73299 2.04299L4.16299 3.60299L5.22099 4.66699L6.78999 3.10699L5.73299 2.04299ZM10.191 7.48299C9.66099 6.95099 9.66099 6.95099 9.66099 6.95299H9.65899L9.65599 6.95699C9.60847 7.0049 9.56592 7.05751 9.52899 7.11399C9.47499 7.19399 9.41599 7.29899 9.36599 7.43199C9.24427 7.77532 9.21394 8.1444 9.27799 8.50299C9.41199 9.36799 10.008 10.511 11.534 12.029L12.592 10.965C11.163 9.54499 10.823 8.68099 10.76 8.27299C10.73 8.07899 10.761 7.98299 10.77 7.96099C10.776 7.94766 10.776 7.94566 10.77 7.95499C10.7611 7.96879 10.751 7.98183 10.74 7.99399L10.73 8.00399L10.72 8.01299L10.191 7.48299ZM11.534 12.029C13.061 13.547 14.21 14.139 15.076 14.271C15.519 14.339 15.876 14.285 16.147 14.184C16.2988 14.1285 16.4406 14.0488 16.567 13.948L16.617 13.903L16.624 13.897L16.627 13.894L16.628 13.892C16.628 13.892 16.629 13.891 16.1 13.359C15.57 12.827 15.573 12.826 15.573 12.826L15.575 12.824L15.577 12.822L15.583 12.817L15.593 12.807L15.631 12.777C15.6403 12.771 15.638 12.7717 15.624 12.779C15.599 12.788 15.501 12.819 15.304 12.789C14.89 12.725 14.02 12.385 12.592 10.965L11.534 12.029ZM9.97399 2.40899C8.95399 1.04899 6.94999 0.83299 5.73299 2.04299L6.78999 3.10699C7.32199 2.57799 8.26599 2.63299 8.77299 3.30999L9.97399 2.40899ZM4.75199 5.70399C4.73199 5.35799 4.89099 4.99599 5.22099 4.66799L4.16199 3.60399C3.62499 4.13799 3.20199 4.89399 3.25299 5.78799L4.75199 5.70399ZM19.472 17.764C19.198 18.038 18.902 18.192 18.607 18.219L18.746 19.712C19.481 19.643 20.082 19.273 20.53 18.828L19.472 17.764ZM11.006 7.72899C11.991 6.74999 12.064 5.20299 11.235 4.09499L10.034 4.99399C10.437 5.53299 10.377 6.23999 9.94899 6.66699L11.006 7.72899ZM20.526 14.288C21.343 14.732 21.47 15.778 20.893 16.352L21.951 17.415C23.291 16.082 22.878 13.859 21.241 12.97L20.526 14.288ZM17.085 13.439C17.469 13.057 18.087 12.963 18.615 13.249L19.331 11.932C18.247 11.342 16.903 11.505 16.027 12.375L17.085 13.439Z" fill="black"/>
    </symbol>
    <symbol id="smile-face" width="24" height="24" viewBox="0 0 24 24" fill="none" xmlns="http://www.w3.org/2000/svg">
        <path d="M12 22C17.5228 22 22 17.5228 22 12C22 6.47715 17.5228 2 12 2C6.47715 2 2 6.47715 2 12C2 17.5228 6.47715 22 12 22Z" stroke="black" stroke-width="1.5"/>
        <path d="M9 16C9.85 16.63 10.885 17 12 17C13.115 17 14.15 16.63 15 16" stroke="black" stroke-width="1.5" stroke-linecap="round"/>
        <path d="M16 10.5C16 11.328 15.552 12 15 12C14.448 12 14 11.328 14 10.5C14 9.672 14.448 9 15 9C15.552 9 16 9.672 16 10.5Z" fill="black"/>
        <path d="M9 12C9.55228 12 10 11.3284 10 10.5C10 9.67157 9.55228 9 9 9C8.44772 9 8 9.67157 8 10.5C8 11.3284 8.44772 12 9 12Z" fill="black"/>
    </symbol>
    <symbol id="velog" height="24" width="24" viewBox="0 0 24 24" fill="none" xmlns="http://www.w3.org/2000/svg" >
      <path d="M3 0C1.338 0 0 1.338 0 3v18c0 1.662 1.338 3 3 3h18c1.662 0 3 -1.338 3 -3V3c0 -1.662 -1.338 -3 -3 -3H3Zm6.883 6.25c0.63 0 1.005 0.3 1.125 0.9l1.463 8.303c0.465 -0.615 0.846 -1.133 1.146 -1.553 0.465 -0.66 0.893 -1.418 1.283 -2.273 0.405 -0.855 0.608 -1.62 0.608 -2.295 0 -0.405 -0.113 -0.727 -0.338 -0.967 -0.21 -0.255 -0.608 -0.577 -1.193 -0.967 0.6 -0.765 1.35 -1.148 2.25 -1.148 0.48 0 0.878 0.143 1.193 0.428 0.33 0.285 0.494 0.704 0.494 1.26 0 0.93 -0.39 2.093 -1.17 3.488 -0.765 1.38 -2.241 3.457 -4.431 6.232l-2.227 0.156 -1.711 -9.628h-2.25V7.24c0.6 -0.195 1.305 -0.406 2.115 -0.63 0.81 -0.24 1.358 -0.36 1.643 -0.36Z" fill="#000000" stroke-width="1"></path>
    </symbol>
</svg>